<svg width="160" height="100" viewBox="0 0 201 125" fill="none" xmlns="http://www.w3.org/2000/svg">
<g filter="url(#filter0_d)">
<path d="M22.5873 23.6168C25.7078 18.5188 33.1133 18.5188 36.2337 23.6168L47.4274 41.904C50.6904 47.2347 46.8542 54.0805 40.6042 54.0805H18.2168C11.9668 54.0805 8.13065 47.2346 11.3936 41.904L22.5873 23.6168Z" fill="url(#paint0_linear)"/>
</g>
<g filter="url(#filter1_i)">
<ellipse cx="28.5506" cy="41.0267" rx="4.36654" ry="4.17127" fill="#C4C4C4"/>
</g>
<ellipse rx="2.01529" ry="1.92523" transform="matrix(0.999832 -0.0183461 0.0201034 0.999798 28.477 40.9565)" fill="white"/>
<ellipse rx="0.671765" ry="0.641744" transform="matrix(0.999832 -0.0183461 0.0201034 0.999798 28.2969 40.1442)" fill="black"/>
<mask id="mask0" mask-type="alpha" maskUnits="userSpaceOnUse" x="10" y="19" width="39" height="36">
<path d="M23.0137 23.8778C25.9392 19.0985 32.8818 19.0985 35.8073 23.8778L47.001 42.165C50.06 47.1625 46.4636 53.5805 40.6042 53.5805H18.2168C12.3574 53.5805 8.76103 47.1625 11.82 42.165L23.0137 23.8778Z" fill="black" stroke="black"/>
</mask>
<g mask="url(#mask0)">
</g>
<g filter="url(#filter2_d)">
<ellipse rx="5.69537" ry="5.63078" transform="matrix(1.0145 0.0655761 -0.0694335 0.98025 27.4585 12.3479)" fill="#FF4E55"/>
<ellipse rx="5.69537" ry="5.63078" transform="matrix(1.0145 0.0655761 -0.0694335 0.98025 30.6941 12.5571)" fill="#F95C63"/>
<path d="M28.9894 7.12378C32.4203 3.26455 34.6231 2.97813 35.2956 3.31733" stroke="url(#paint1_linear)"/>
</g>
<g filter="url(#filter3_d)">
<path d="M23.8668 63.0198L8.31613 62.8134L8.38838 57.8459L46.545 58.3524L46.4728 63.3198L30.7062 63.1106L30.0161 110.554L23.1767 110.463L23.8668 63.0198ZM59.1947 74.2896C63.5143 74.347 66.7592 75.6862 68.9293 78.3072C71.1481 80.8809 72.2271 84.2555 72.1664 88.431C72.1566 89.103 72.0985 89.7982 71.992 90.5169C71.9343 91.1882 71.8518 91.9072 71.7447 92.6738L48.9947 92.3718C48.9283 96.9314 49.8849 100.472 51.8645 102.995C53.844 105.517 56.5136 106.801 59.8733 106.845C62.6091 106.882 65.6454 106.058 68.9822 104.374L71.1617 108.003C69.4623 109.325 67.5518 110.308 65.4302 110.952C63.3086 111.595 61.1679 111.903 59.0081 111.874C55.2644 111.825 52.1576 110.895 49.6876 109.087C47.2657 107.278 45.4754 104.95 44.3166 102.103C43.1579 99.255 42.6009 96.2953 42.6456 93.2237C42.6805 90.8239 43.0503 88.5006 43.7551 86.2538C44.4598 84.0069 45.4974 81.9805 46.8678 80.1746C48.2869 78.3212 50.0121 76.88 52.0432 75.8509C54.0751 74.7737 56.4589 74.2533 59.1947 74.2896ZM58.5528 78.8175C56.9209 78.7959 55.4744 79.2327 54.2133 80.128C52.9521 81.0234 51.9271 82.1859 51.1382 83.6155C50.35 84.9972 49.8012 86.43 49.4915 87.9141L65.9061 88.1319C66.0454 85.1575 65.4546 82.8695 64.1337 81.2678C62.8129 79.6661 60.9526 78.8494 58.5528 78.8175ZM85.3354 74.8526C86.1686 76.9759 86.6881 79.215 86.8939 81.5699C88.1704 79.6187 89.8736 78.0331 92.0036 76.8133C94.1335 75.5934 96.3744 74.9991 98.7262 75.0304L97.1942 81.3466C94.8904 81.316 92.9138 81.8898 91.2645 83.068C89.6632 84.2469 88.2253 85.7399 86.9509 87.5472L86.6054 111.305L80.6299 111.225L81.0069 85.3081C81.0271 83.9162 80.8592 82.2579 80.5032 80.333C80.1958 78.3607 79.6429 76.7692 78.8444 75.5585L85.3354 74.8526ZM110.433 75.3297C111.081 76.9705 111.513 78.6324 111.728 80.3154C113.042 79.0847 114.644 77.9059 116.532 76.7788C118.421 75.6518 120.325 75.101 122.245 75.1265C124.549 75.1571 126.509 75.6631 128.127 76.6447C129.746 77.5783 131.044 79.1076 132.021 81.2328C133.482 79.812 135.205 78.4908 137.191 77.269C139.178 75.9993 141.203 75.3781 143.267 75.4055C147.251 75.4584 150.041 76.6955 151.638 79.1169C153.283 81.539 154.078 84.5978 154.025 88.2934L153.677 112.195L147.702 112.116L148.021 90.1579C148.042 88.7181 147.943 87.2766 147.724 85.8336C147.553 84.3912 147.042 83.1843 146.192 82.2129C145.39 81.2422 144.053 80.7444 142.182 80.7196C140.502 80.6973 138.838 81.2272 137.19 82.3095C135.543 83.3437 134.159 84.4054 133.039 85.4947L132.655 111.916L126.679 111.837L126.999 89.8789C127.02 88.391 126.921 86.9496 126.702 85.5546C126.531 84.1122 126.02 82.9053 125.17 81.9339C124.368 80.9632 123.031 80.4654 121.159 80.4406C120.104 80.4265 119.02 80.6762 117.908 81.1895C116.797 81.6548 115.732 82.2647 114.713 83.0192C113.695 83.7258 112.797 84.4099 112.019 85.0716L111.633 111.637L105.657 111.558L106.035 85.5683C106.057 84.0804 105.889 82.4461 105.531 80.6651C105.221 78.8369 104.668 77.2694 103.871 75.9627L110.433 75.3297ZM178.653 113.462C175.149 113.416 172.21 112.513 169.835 110.753C167.509 108.946 165.767 106.619 164.608 103.771C163.497 100.924 162.965 97.8929 163.012 94.6773C163.059 91.4616 163.727 88.4222 165.017 85.5591C166.355 82.6486 168.262 80.2977 170.736 78.5063C173.21 76.715 176.175 75.8423 179.631 75.8882C183.183 75.9353 186.122 76.8384 188.449 78.5974C190.823 80.3571 192.566 82.6604 193.677 85.5074C194.835 88.355 195.391 91.4107 195.344 94.6743C195.296 97.938 194.627 101.025 193.337 103.937C192.047 106.8 190.165 109.127 187.69 110.918C185.217 112.662 182.204 113.51 178.653 113.462ZM178.791 108.928C180.662 108.953 182.228 108.541 183.489 107.694C184.798 106.799 185.847 105.637 186.636 104.208C187.473 102.779 188.071 101.25 188.431 99.623C188.791 97.9477 188.983 96.3421 189.005 94.8062C189.028 93.2224 188.883 91.6123 188.571 89.9761C188.308 88.2924 187.826 86.7499 187.126 85.3485C186.427 83.8991 185.436 82.7338 184.153 81.8527C182.918 80.9242 181.365 80.4476 179.493 80.4227C177.621 80.3979 176.031 80.8328 174.722 81.7275C173.461 82.5749 172.437 83.7134 171.648 85.143C170.859 86.5727 170.284 88.1252 169.924 89.8006C169.564 91.4279 169.373 93.0095 169.351 94.5454C169.329 96.0332 169.474 97.6193 169.786 99.3035C170.098 100.94 170.603 102.483 171.302 103.932C172.049 105.382 173.04 106.571 174.275 107.5C175.509 108.428 177.015 108.904 178.791 108.928Z" fill="#FB4F52"/>
</g>
<g filter="url(#filter4_d)">
<path d="M90.2112 39.3784L105.942 39.5872L105.906 42.071L94.0268 41.9133L93.8953 50.9484L103.111 51.0707L103.075 53.5184L93.8597 53.3961L93.7179 63.1511L105.597 63.3087L105.561 65.7925L90.334 65.5904L90.6806 41.7609L90.2112 39.3784ZM112.226 47.6994C112.388 48.1095 112.526 48.5314 112.64 48.965C112.754 49.3985 112.831 49.8316 112.873 50.2642C113.604 49.5538 114.465 48.9412 115.456 48.4263C116.448 47.8874 117.46 47.6248 118.492 47.6385C120.484 47.6649 121.879 48.2835 122.677 49.4942C123.5 50.7052 123.898 52.2346 123.871 54.0825L123.697 66.0332L120.745 65.994L120.905 55.0152C120.916 54.2712 120.866 53.5385 120.757 52.817C120.671 52.0958 120.416 51.5044 119.991 51.0427C119.59 50.5573 118.909 50.3083 117.949 50.2955C117.061 50.2837 116.17 50.5239 115.274 51.0161C114.404 51.4846 113.652 52.0146 113.019 52.6063L112.826 65.8889L109.874 65.8497L110.058 53.1791C110.065 52.6991 110.037 52.1467 109.975 51.5218C109.912 50.8729 109.801 50.2474 109.642 49.6452C109.483 49.0191 109.25 48.4999 108.944 48.0878L112.226 47.6994ZM134.866 47.8558C135.562 47.8651 136.221 47.9578 136.842 48.1341C137.488 48.3107 138.146 48.4034 138.818 48.4123C139.73 48.4244 140.655 48.3887 141.592 48.3051C142.53 48.1976 143.516 48.0786 144.55 47.9484L143.864 50.5315L140.984 50.4933C140.816 50.491 140.636 50.4886 140.444 50.4861C140.277 50.4599 140.109 50.4336 139.941 50.4074C140.741 51.5221 141.132 52.7154 141.113 53.9873C141.087 55.8111 140.477 57.3151 139.284 58.4994C138.091 59.6597 136.39 60.2251 134.182 60.1958C133.582 60.1879 133.052 60.3369 132.592 60.6428C132.131 60.9487 131.896 61.4256 131.887 62.0735C131.881 62.5055 131.984 62.8189 132.197 63.0137C132.435 63.1849 132.721 63.2847 133.057 63.3132C133.393 63.3416 133.728 63.3581 134.064 63.3625L137.556 63.4089C138.396 63.42 139.247 63.5153 140.108 63.6948C140.97 63.8742 141.684 64.2318 142.253 64.7673C142.845 65.3033 143.133 66.1231 143.117 67.227C143.098 68.5469 142.818 69.6713 142.276 70.6002C141.734 71.5291 141.015 72.2756 140.119 72.8397C139.222 73.4279 138.22 73.8466 137.113 74.0959C136.005 74.3453 134.887 74.4624 133.759 74.4475C133.087 74.4385 132.38 74.3452 131.639 74.1673C130.897 74.0134 130.193 73.7521 129.526 73.3832C128.883 73.0386 128.362 72.5757 127.962 71.9943C127.563 71.413 127.369 70.6903 127.382 69.8264C127.395 68.9145 127.683 68.1143 128.245 67.4257C128.831 66.7374 129.499 66.1582 130.25 65.6881L130.252 65.5801C129.132 64.9892 128.581 64.1178 128.598 62.966C128.602 62.654 128.726 62.3676 128.97 62.1068C129.214 61.822 129.52 61.4541 129.886 61.0029C130.277 60.552 130.694 59.9335 131.137 59.1473C130.306 58.5602 129.644 57.8194 129.153 56.9248C128.663 56.0062 128.425 55.031 128.44 53.9991C128.457 52.8232 128.76 51.7711 129.35 50.8429C129.939 49.9146 130.718 49.1809 131.686 48.6417C132.678 48.1028 133.738 47.8409 134.866 47.8558ZM134.871 50.0161C133.983 50.0043 133.209 50.3901 132.549 51.1734C131.914 51.933 131.589 52.8768 131.572 54.0047C131.555 55.1565 131.853 56.1326 132.466 56.9328C133.102 57.7093 133.853 58.1033 134.717 58.1147C135.701 58.1278 136.486 57.7662 137.073 57.0299C137.684 56.294 137.998 55.326 138.015 54.1262C138.032 52.9743 137.722 52.0101 137.085 51.2336C136.473 50.4334 135.734 50.0275 134.871 50.0161ZM132.367 66.1843C131.906 66.5142 131.48 66.9646 131.087 67.5354C130.695 68.1302 130.494 68.7036 130.486 69.2556C130.478 69.8315 130.675 70.3262 131.077 70.7395C131.503 71.1532 132.014 71.46 132.612 71.66C133.232 71.8842 133.807 71.9999 134.335 72.0069C135.175 72.018 136.052 71.9097 136.968 71.6818C137.907 71.4543 138.693 71.0566 139.325 70.489C139.981 69.9456 140.316 69.194 140.33 68.2341C140.339 67.6102 140.154 67.1517 139.774 66.8586C139.394 66.5896 138.916 66.4152 138.342 66.3356C137.79 66.2803 137.239 66.2489 136.687 66.2416L132.367 66.1843ZM150.245 38.9512L149.846 66.3803L146.859 66.3406L147.227 40.9993L146.79 38.9053L150.245 38.9512ZM159.876 42.6073C159.868 43.2072 159.644 43.7203 159.206 44.1465C158.792 44.5731 158.272 44.7822 157.649 44.7739C157.049 44.766 156.536 44.5431 156.11 44.1054C155.708 43.6681 155.512 43.1494 155.521 42.5495C155.529 41.9496 155.741 41.4363 156.155 41.0098C156.593 40.5836 157.112 40.3744 157.712 40.3824C158.312 40.3904 158.825 40.6132 159.251 41.0509C159.677 41.4886 159.885 42.0074 159.876 42.6073ZM159.141 48.6101L158.881 66.5002L155.893 66.4605L156.122 50.6942L155.721 48.5647L159.141 48.6101ZM170.953 48.3348C171.769 48.3456 172.572 48.4643 173.36 48.6908C174.174 48.8936 174.913 49.2154 175.579 49.6563L174.501 51.9462C173.98 51.5073 173.396 51.1755 172.751 50.9509C172.107 50.7263 171.472 50.6099 170.848 50.6016C169.96 50.5898 169.178 50.7835 168.5 51.1825C167.846 51.5819 167.513 52.1895 167.501 53.0054C167.488 53.8933 167.766 54.5571 168.336 54.9967C168.93 55.4366 169.632 55.8539 170.442 56.2487C171.229 56.6192 172.015 57.0377 172.8 57.5041C173.61 57.9469 174.286 58.5199 174.827 59.2232C175.37 59.9024 175.632 60.818 175.616 61.9699C175.598 63.1698 175.284 64.1617 174.672 64.9456C174.085 65.7059 173.309 66.2596 172.344 66.6069C171.403 66.9544 170.38 67.1208 169.276 67.1062C168.316 67.0935 167.358 66.9487 166.402 66.672C165.446 66.3953 164.564 66.0116 163.755 65.5208L165.046 63.3417C165.616 63.7813 166.259 64.1379 166.975 64.4114C167.691 64.6849 168.385 64.8262 169.057 64.8351C169.969 64.8472 170.764 64.6417 171.442 64.2187C172.145 63.796 172.502 63.1527 172.515 62.2888C172.523 61.6888 172.338 61.1943 171.96 60.8053C171.606 60.3925 171.143 60.0264 170.572 59.7067C170 59.3871 169.405 59.0792 168.785 58.783C168.07 58.4134 167.368 58.0201 166.678 57.6029C166.012 57.162 165.468 56.6147 165.046 55.9611C164.623 55.3074 164.419 54.4766 164.434 53.4687C164.451 52.3169 164.765 51.3609 165.376 50.601C166.011 49.8414 166.823 49.2761 167.813 48.9052C168.803 48.5103 169.849 48.3202 170.953 48.3348ZM183.673 39.3949L183.504 51.0576C184.282 50.3479 185.119 49.7469 186.014 49.2548C186.91 48.7626 187.897 48.5237 188.977 48.538C190.969 48.5645 192.364 49.183 193.162 50.3937C193.961 51.6044 194.347 53.1337 194.32 54.9815L194.146 66.9682L191.194 66.9291L191.354 55.9142C191.365 55.1703 191.315 54.4496 191.205 53.7521C191.12 53.0309 190.877 52.4276 190.476 51.9422C190.075 51.4569 189.394 51.2078 188.434 51.1951C187.546 51.1833 186.667 51.4356 185.795 51.9521C184.924 52.4446 184.148 52.9623 183.468 53.5054L183.274 66.824L180.323 66.7848L180.691 41.4794L180.254 39.3495L183.673 39.3949Z" fill="#FB4F52"/>
</g>
<defs>
<filter id="filter0_d" x="6.20435" y="19.7933" width="46.4125" height="42.2872" filterUnits="userSpaceOnUse" color-interpolation-filters="sRGB">
<feFlood flood-opacity="0" result="BackgroundImageFix"/>
<feColorMatrix in="SourceAlpha" type="matrix" values="0 0 0 0 0 0 0 0 0 0 0 0 0 0 0 0 0 0 127 0"/>
<feOffset dy="4"/>
<feGaussianBlur stdDeviation="2"/>
<feColorMatrix type="matrix" values="0 0 0 0 0 0 0 0 0 0 0 0 0 0 0 0 0 0 0.25 0"/>
<feBlend mode="normal" in2="BackgroundImageFix" result="effect1_dropShadow"/>
<feBlend mode="normal" in="SourceGraphic" in2="effect1_dropShadow" result="shape"/>
</filter>
<filter id="filter1_i" x="24.1841" y="36.8555" width="8.73308" height="12.3425" filterUnits="userSpaceOnUse" color-interpolation-filters="sRGB">
<feFlood flood-opacity="0" result="BackgroundImageFix"/>
<feBlend mode="normal" in="SourceGraphic" in2="BackgroundImageFix" result="shape"/>
<feColorMatrix in="SourceAlpha" type="matrix" values="0 0 0 0 0 0 0 0 0 0 0 0 0 0 0 0 0 0 127 0" result="hardAlpha"/>
<feOffset dy="4"/>
<feGaussianBlur stdDeviation="2"/>
<feComposite in2="hardAlpha" operator="arithmetic" k2="-1" k3="1"/>
<feColorMatrix type="matrix" values="0 0 0 0 0 0 0 0 0 0 0 0 0 0 0 0 0 0 0.25 0"/>
<feBlend mode="normal" in2="shape" result="effect1_innerShadow"/>
</filter>
<filter id="filter2_d" x="17.6672" y="2.72034" width="22.8184" height="23.3691" filterUnits="userSpaceOnUse" color-interpolation-filters="sRGB">
<feFlood flood-opacity="0" result="BackgroundImageFix"/>
<feColorMatrix in="SourceAlpha" type="matrix" values="0 0 0 0 0 0 0 0 0 0 0 0 0 0 0 0 0 0 127 0"/>
<feOffset dy="4"/>
<feGaussianBlur stdDeviation="2"/>
<feColorMatrix type="matrix" values="0 0 0 0 0 0 0 0 0 0 0 0 0 0 0 0 0 0 0.25 0"/>
<feBlend mode="normal" in2="BackgroundImageFix" result="effect1_dropShadow"/>
<feBlend mode="normal" in="SourceGraphic" in2="effect1_dropShadow" result="shape"/>
</filter>
<filter id="filter3_d" x="4.31616" y="57.8459" width="195.03" height="63.6184" filterUnits="userSpaceOnUse" color-interpolation-filters="sRGB">
<feFlood flood-opacity="0" result="BackgroundImageFix"/>
<feColorMatrix in="SourceAlpha" type="matrix" values="0 0 0 0 0 0 0 0 0 0 0 0 0 0 0 0 0 0 127 0"/>
<feOffset dy="4"/>
<feGaussianBlur stdDeviation="2"/>
<feColorMatrix type="matrix" values="0 0 0 0 0 0 0 0 0 0 0 0 0 0 0 0 0 0 0.25 0"/>
<feBlend mode="normal" in2="BackgroundImageFix" result="effect1_dropShadow"/>
<feBlend mode="normal" in="SourceGraphic" in2="effect1_dropShadow" result="shape"/>
</filter>
<filter id="filter4_d" x="86.2112" y="38.9053" width="112.11" height="43.5434" filterUnits="userSpaceOnUse" color-interpolation-filters="sRGB">
<feFlood flood-opacity="0" result="BackgroundImageFix"/>
<feColorMatrix in="SourceAlpha" type="matrix" values="0 0 0 0 0 0 0 0 0 0 0 0 0 0 0 0 0 0 127 0"/>
<feOffset dy="4"/>
<feGaussianBlur stdDeviation="2"/>
<feColorMatrix type="matrix" values="0 0 0 0 0 0 0 0 0 0 0 0 0 0 0 0 0 0 0.25 0"/>
<feBlend mode="normal" in2="BackgroundImageFix" result="effect1_dropShadow"/>
<feBlend mode="normal" in="SourceGraphic" in2="effect1_dropShadow" result="shape"/>
</filter>
<linearGradient id="paint0_linear" x1="63.9793" y1="-6.79333" x2="-19.9535" y2="66.1423" gradientUnits="userSpaceOnUse">
<stop offset="0.174285" stop-color="#F6F4F1"/>
<stop offset="1" stop-color="#DDE4EF" stop-opacity="0.94"/>
</linearGradient>
<linearGradient id="paint1_linear" x1="32.2963" y1="3.04907" x2="32.0202" y2="7.31969" gradientUnits="userSpaceOnUse">
<stop stop-color="#14FA39"/>
<stop offset="1" stop-color="#14FA39" stop-opacity="0"/>
</linearGradient>
</defs>
</svg>
