<svg width="29" height="29" viewBox="0 0 29 29" fill="none" xmlns="http://www.w3.org/2000/svg">
<path d="M27.9049 11.9791L16.0761 11.9785C15.5538 11.9785 15.1304 12.4018 15.1304 12.9242V16.703C15.1304 17.2252 15.5538 17.6486 16.076 17.6486H22.7373C22.0079 19.5416 20.6465 21.1269 18.9095 22.1342L21.7499 27.0512C26.3062 24.4161 28.9999 19.7925 28.9999 14.6168C28.9999 13.8799 28.9456 13.3531 28.8369 12.7599C28.7544 12.3092 28.3631 11.9791 27.9049 11.9791Z" fill="#167EE6"/>
<path d="M14.5002 23.326C11.2403 23.326 8.39441 21.5448 6.86596 18.9092L1.94922 21.7431C4.45132 26.0797 9.13856 28.9999 14.5002 28.9999C17.1304 28.9999 19.6122 28.2917 21.7502 27.0576V27.0508L18.9098 22.1338C17.6106 22.8874 16.1071 23.326 14.5002 23.326Z" fill="#12B347"/>
<path d="M21.75 27.0575V27.0508L18.9096 22.1338C17.6104 22.8873 16.1071 23.3259 14.5 23.3259V28.9998C17.1302 28.9998 19.6122 28.2916 21.75 27.0575Z" fill="#0F993E"/>
<path d="M5.67392 14.5001C5.67392 12.8933 6.11243 11.39 6.86581 10.0908L1.94906 7.25684C0.708121 9.38805 0 11.8631 0 14.5001C0 17.1371 0.708121 19.6121 1.94906 21.7434L6.86581 18.9094C6.11243 17.6102 5.67392 16.1069 5.67392 14.5001Z" fill="#FFD500"/>
<path d="M14.5002 5.67392C16.6259 5.67392 18.5786 6.42928 20.1037 7.68574C20.48 7.99567 21.0269 7.9733 21.3715 7.62864L24.0489 4.95124C24.44 4.56019 24.4121 3.9201 23.9944 3.55771C21.439 1.34085 18.1142 0 14.5002 0C9.13856 0 4.45132 2.92022 1.94922 7.25674L6.86596 10.0907C8.39441 7.45504 11.2403 5.67392 14.5002 5.67392Z" fill="#FF4B26"/>
<path d="M20.1036 7.68574C20.4798 7.99567 21.0268 7.9733 21.3714 7.62864L24.0488 4.95124C24.4398 4.56019 24.4119 3.9201 23.9942 3.55771C21.4389 1.3408 18.1141 0 14.5 0V5.67392C16.6257 5.67392 18.5784 6.42928 20.1036 7.68574Z" fill="#D93F21"/>
</svg>
